<svg width="24" height="24" viewBox="0 0 24 24" fill="none" xmlns="http://www.w3.org/2000/svg">
<g clip-path="url(#clip0_758_219)">
<mask id="path-1-inside-1_758_219" fill="white">
<path d="M13.4414 8.08122C14.2152 8.08122 14.2152 9.25761 13.4414 9.25761H12.5879V11.412H13.0868C14.0222 11.412 14.7853 12.1751 14.7853 13.1105V14.2205C14.7853 15.156 14.0222 15.9191 13.0868 15.9191H12.5879V16.4874C12.5879 17.2613 11.4115 17.2613 11.4115 16.4874V15.9191H10.558C9.78409 15.9191 9.78409 14.7427 10.558 14.7427H11.4115V12.5883H10.9126C9.97911 12.5883 9.21404 11.8238 9.21404 10.8898V9.77976C9.21404 8.84432 9.97713 8.08122 10.9126 8.08122H11.4115V7.51287C11.4115 7.18802 11.6748 6.92468 11.9997 6.92468C12.3245 6.92468 12.5879 7.18802 12.5879 7.51287V8.08122H13.4414ZM18.7226 12.0002C18.7226 11.2263 19.899 11.2263 19.899 12.0002C19.899 16.363 16.3625 19.8995 11.9997 19.8995C11.2258 19.8995 11.2258 18.7231 11.9997 18.7231C15.7128 18.7231 18.7226 15.7133 18.7226 12.0002ZM5.27668 12.0002C5.27668 12.774 4.1003 12.774 4.1003 12.0002C4.1003 7.63731 7.63683 4.10078 11.9997 4.10078C12.7735 4.10078 12.7735 5.27717 11.9997 5.27717C8.28653 5.27717 5.27668 8.28702 5.27668 12.0002ZM11.9997 0.234863C18.4973 0.234863 23.765 5.50253 23.765 12.0002C23.765 18.4978 18.4973 23.7654 11.9997 23.7654C5.50204 23.7654 0.234375 18.4978 0.234375 12.0002C0.234375 5.50253 5.50204 0.234863 11.9997 0.234863ZM11.9997 1.41153C6.15174 1.41153 1.41105 6.15223 1.41105 12.0002C1.41105 17.8481 6.15146 22.5888 11.9997 22.5888C17.8479 22.5888 22.5883 17.8484 22.5883 12.0002C22.5883 6.15195 17.8476 1.41153 11.9997 1.41153ZM11.4115 9.25761H10.9126C10.6268 9.25761 10.3907 9.49374 10.3907 9.77976V10.8898C10.3907 11.1775 10.6257 11.412 10.9126 11.412H11.4115V9.25761ZM12.5879 14.7427H13.0868C13.3725 14.7427 13.6086 14.5066 13.6086 14.2205V13.1105C13.6086 12.8248 13.3725 12.5883 13.0868 12.5883H12.5879V14.7427Z"/>
</mask>
<path d="M12.5879 9.25761V7.25761H10.5879V9.25761H12.5879ZM12.5879 11.412H10.5879V13.412H12.5879V11.412ZM12.5879 15.9191V13.9191H10.5879V15.9191H12.5879ZM11.4115 15.9191H13.4115V13.9191H11.4115V15.9191ZM11.4115 14.7427V16.7427H13.4115V14.7427H11.4115ZM11.4115 12.5883H13.4115V10.5883H11.4115V12.5883ZM11.4115 8.08122V10.0812H13.4115V8.08122H11.4115ZM12.5879 8.08122H10.5879V10.0812H12.5879V8.08122ZM11.4115 9.25761H13.4115V7.25761H11.4115V9.25761ZM11.4115 11.412V13.412H13.4115V11.412H11.4115ZM12.5879 14.7427H10.5879V16.7427H12.5879V14.7427ZM12.5879 12.5883V10.5883H10.5879V12.5883H12.5879ZM13.4414 10.0812C13.0827 10.0812 12.6715 9.92407 12.3731 9.58384C12.1087 9.28238 12.0218 8.94136 12.0218 8.66942C12.0218 8.39748 12.1087 8.05645 12.3731 7.755C12.6715 7.41476 13.0827 7.25761 13.4414 7.25761V11.2576C14.1869 11.2576 14.8884 10.9534 15.3803 10.3926C15.8381 9.87057 16.0218 9.23546 16.0218 8.66942C16.0218 8.10338 15.8381 7.46826 15.3803 6.94623C14.8884 6.38542 14.1869 6.08122 13.4414 6.08122V10.0812ZM13.4414 7.25761H12.5879V11.2576H13.4414V7.25761ZM10.5879 9.25761V11.412H14.5879V9.25761H10.5879ZM12.5879 13.412H13.0868V9.41196H12.5879V13.412ZM13.0868 13.412C12.9176 13.412 12.7853 13.2796 12.7853 13.1105H16.7853C16.7853 11.0705 15.1268 9.41196 13.0868 9.41196V13.412ZM12.7853 13.1105V14.2205H16.7853V13.1105H12.7853ZM12.7853 14.2205C12.7853 14.0514 12.9176 13.9191 13.0868 13.9191V17.9191C15.1268 17.9191 16.7853 16.2606 16.7853 14.2205H12.7853ZM13.0868 13.9191H12.5879V17.9191H13.0868V13.9191ZM10.5879 15.9191V16.4874H14.5879V15.9191H10.5879ZM10.5879 16.4874C10.5879 16.1288 10.745 15.7176 11.0852 15.4191C11.3867 15.1547 11.7277 15.0678 11.9997 15.0678C12.2716 15.0678 12.6126 15.1547 12.9141 15.4191C13.2543 15.7176 13.4115 16.1288 13.4115 16.4874H9.41147C9.41147 17.233 9.71567 17.9344 10.2765 18.4263C10.7985 18.8842 11.4336 19.0678 11.9997 19.0678C12.5657 19.0678 13.2008 18.8842 13.7229 18.4263C14.2837 17.9344 14.5879 17.233 14.5879 16.4874H10.5879ZM13.4115 16.4874V15.9191H9.41147V16.4874H13.4115ZM11.4115 13.9191H10.558V17.9191H11.4115V13.9191ZM10.558 13.9191C10.9166 13.9191 11.3278 14.0762 11.6262 14.4165C11.8906 14.7179 11.9776 15.0589 11.9776 15.3309C11.9776 15.6028 11.8906 15.9439 11.6262 16.2453C11.3278 16.5855 10.9166 16.7427 10.558 16.7427V12.7427C9.81238 12.7427 9.11096 13.0469 8.61907 13.6077C8.1612 14.1297 7.97755 14.7648 7.97755 15.3309C7.97755 15.8969 8.1612 16.532 8.61907 17.0541C9.11096 17.6149 9.81238 17.9191 10.558 17.9191V13.9191ZM10.558 16.7427H11.4115V12.7427H10.558V16.7427ZM13.4115 14.7427V12.5883H9.41147V14.7427H13.4115ZM11.4115 10.5883H10.9126V14.5883H11.4115V10.5883ZM10.9126 10.5883C11.0832 10.5883 11.214 10.7188 11.214 10.8898H7.21404C7.21404 12.9288 8.87498 14.5883 10.9126 14.5883V10.5883ZM11.214 10.8898V9.77976H7.21404V10.8898H11.214ZM11.214 9.77976C11.214 9.94889 11.0817 10.0812 10.9126 10.0812V6.08122C8.87256 6.08122 7.21404 7.73975 7.21404 9.77976H11.214ZM10.9126 10.0812H11.4115V6.08122H10.9126V10.0812ZM13.4115 8.08122V7.51287H9.41147V8.08122H13.4115ZM13.4115 7.51287C13.4115 8.29259 12.7794 8.92468 11.9997 8.92468V4.92468C10.5702 4.92468 9.41147 6.08345 9.41147 7.51287H13.4115ZM11.9997 8.92468C11.2199 8.92468 10.5879 8.29259 10.5879 7.51287H14.5879C14.5879 6.08345 13.4291 4.92468 11.9997 4.92468V8.92468ZM10.5879 7.51287V8.08122H14.5879V7.51287H10.5879ZM12.5879 10.0812H13.4414V6.08122H12.5879V10.0812ZM20.7226 12.0002C20.7226 12.3588 20.5655 12.77 20.2253 13.0684C19.9238 13.3328 19.5828 13.4198 19.3108 13.4198C19.0389 13.4198 18.6979 13.3328 18.3964 13.0684C18.0562 12.77 17.899 12.3588 17.899 12.0002H21.899C21.899 11.2546 21.5948 10.5532 21.034 10.0613C20.512 9.60339 19.8769 9.41975 19.3108 9.41975C18.7448 9.41975 18.1097 9.60339 17.5877 10.0613C17.0268 10.5532 16.7226 11.2546 16.7226 12.0002H20.7226ZM17.899 12.0002C17.899 15.2584 15.2579 17.8995 11.9997 17.8995V21.8995C17.4671 21.8995 21.899 17.4676 21.899 12.0002H17.899ZM11.9997 17.8995C12.3583 17.8995 12.7695 18.0567 13.0679 18.3969C13.3324 18.6984 13.4193 19.0394 13.4193 19.3113C13.4193 19.5833 13.3324 19.9243 13.0679 20.2257C12.7695 20.566 12.3583 20.7231 11.9997 20.7231V16.7231C11.2541 16.7231 10.5527 17.0273 10.0608 17.5881C9.60291 18.1102 9.41927 18.7453 9.41927 19.3113C9.41927 19.8774 9.60291 20.5125 10.0608 21.0345C10.5527 21.5953 11.2541 21.8995 11.9997 21.8995V17.8995ZM11.9997 20.7231C16.8174 20.7231 20.7226 16.8179 20.7226 12.0002H16.7226C16.7226 14.6087 14.6082 16.7231 11.9997 16.7231V20.7231ZM3.27668 12.0002C3.27668 11.6415 3.43383 11.2303 3.77407 10.9319C4.07553 10.6675 4.41655 10.5806 4.68849 10.5806C4.96043 10.5806 5.30145 10.6675 5.60291 10.9319C5.94314 11.2303 6.1003 11.6415 6.1003 12.0002H2.1003C2.1003 12.7457 2.40449 13.4471 2.9653 13.939C3.48733 14.3969 4.12245 14.5806 4.68849 14.5806C5.25453 14.5806 5.88965 14.3969 6.41168 13.939C6.97248 13.4471 7.27668 12.7457 7.27668 12.0002H3.27668ZM6.1003 12.0002C6.1003 8.74188 8.7414 6.10078 11.9997 6.10078V2.10078C6.53226 2.10078 2.1003 6.53275 2.1003 12.0002H6.1003ZM11.9997 6.10078C11.641 6.10078 11.2298 5.94363 10.9314 5.6034C10.667 5.30194 10.5801 4.96092 10.5801 4.68898C10.5801 4.41704 10.667 4.07601 10.9314 3.77456C11.2298 3.43432 11.641 3.27717 11.9997 3.27717V7.27717C12.7452 7.27717 13.4467 6.97297 13.9385 6.41216C14.3964 5.89013 14.5801 5.25501 14.5801 4.68898C14.5801 4.12294 14.3964 3.48782 13.9385 2.96579C13.4467 2.40498 12.7452 2.10078 11.9997 2.10078V6.10078ZM11.9997 3.27717C7.18196 3.27717 3.27668 7.18245 3.27668 12.0002H7.27668C7.27668 9.39159 9.3911 7.27717 11.9997 7.27717V3.27717ZM11.9997 2.23486C17.3927 2.23486 21.765 6.6071 21.765 12.0002H25.765C25.765 4.39796 19.6019 -1.76514 11.9997 -1.76514V2.23486ZM21.765 12.0002C21.765 17.3932 17.3927 21.7654 11.9997 21.7654V25.7654C19.6019 25.7654 25.765 19.6023 25.765 12.0002H21.765ZM11.9997 21.7654C6.60661 21.7654 2.23438 17.3932 2.23438 12.0002H-1.76562C-1.76562 19.6023 4.39747 25.7654 11.9997 25.7654V21.7654ZM2.23438 12.0002C2.23438 6.6071 6.60661 2.23486 11.9997 2.23486V-1.76514C4.39747 -1.76514 -1.76562 4.39796 -1.76562 12.0002H2.23438ZM11.9997 -0.588466C5.04717 -0.588466 -0.588954 5.04766 -0.588954 12.0002H3.41105C3.41105 7.2568 7.25631 3.41153 11.9997 3.41153V-0.588466ZM-0.588954 12.0002C-0.588954 18.9526 5.04686 24.5888 11.9997 24.5888V20.5888C7.25607 20.5888 3.41105 16.7435 3.41105 12.0002H-0.588954ZM11.9997 24.5888C18.9524 24.5888 24.5883 18.9529 24.5883 12.0002H20.5883C20.5883 16.7438 16.7433 20.5888 11.9997 20.5888V24.5888ZM24.5883 12.0002C24.5883 5.04734 18.9521 -0.588466 11.9997 -0.588466V3.41153C16.743 3.41153 20.5883 7.25655 20.5883 12.0002H24.5883ZM11.4115 7.25761H10.9126V11.2576H11.4115V7.25761ZM10.9126 7.25761C9.52156 7.25761 8.39071 8.38988 8.39071 9.77976H12.3907C12.3907 10.5976 11.7321 11.2576 10.9126 11.2576V7.25761ZM8.39071 9.77976V10.8898H12.3907V9.77976H8.39071ZM8.39071 10.8898C8.39071 12.2828 9.52184 13.412 10.9126 13.412V9.41196C11.7296 9.41196 12.3907 10.0723 12.3907 10.8898H8.39071ZM10.9126 13.412H11.4115V9.41196H10.9126V13.412ZM13.4115 11.412V9.25761H9.41147V11.412H13.4115ZM12.5879 16.7427H13.0868V12.7427H12.5879V16.7427ZM13.0868 16.7427C14.4778 16.7427 15.6086 15.6104 15.6086 14.2205H11.6086C11.6086 13.4027 12.2672 12.7427 13.0868 12.7427V16.7427ZM15.6086 14.2205V13.1105H11.6086V14.2205H15.6086ZM15.6086 13.1105C15.6086 11.7216 14.4785 10.5883 13.0868 10.5883V14.5883C12.2665 14.5883 11.6086 13.9279 11.6086 13.1105H15.6086ZM13.0868 10.5883H12.5879V14.5883H13.0868V10.5883ZM10.5879 12.5883V14.7427H14.5879V12.5883H10.5879Z" fill="#676767" mask="url(#path-1-inside-1_758_219)"/>
</g>
<defs>
<clipPath id="clip0_758_219">
<rect width="24" height="24" fill="white"/>
</clipPath>
</defs>
</svg>
