<svg width="24" height="24" viewBox="0 0 24 24" fill="none" xmlns="http://www.w3.org/2000/svg">
<g clip-path="url(#clip0_624_83)">
<path d="M13.0345 0C12.612 0 12.1961 0.0314483 11.7865 0.0868966C11.3644 0.0306207 10.9486 0 10.5517 0C7.50538 0 4.75821 1.47724 2.83034 3.83338C2.8109 3.85076 2.79641 3.87145 2.78069 3.89255C2.16621 4.65393 1.63821 5.50593 1.21117 6.42786C1.20041 6.44772 1.19131 6.46676 1.18386 6.48828C0.889655 7.13255 0.643862 7.80993 0.455586 8.51545C0.436965 8.55517 0.42869 8.59862 0.42331 8.64414C0.149379 9.70965 0 10.8352 0 12C0 13.8228 0.360828 15.5508 1.00303 17.0996C1.00883 17.1157 1.01421 17.131 1.02166 17.1459C1.4069 18.0646 1.89145 18.9186 2.46 19.6908C2.47407 19.7098 2.48566 19.7305 2.50303 19.747C3.07821 20.5188 3.73779 21.2061 4.46483 21.7924C4.4851 21.8152 4.50993 21.8313 4.53476 21.8491C6.24248 23.203 8.31641 24 10.5517 24C10.9486 24 11.3644 23.9694 11.7865 23.9131C12.1961 23.9686 12.612 24 13.0345 24C18.8528 24 23.5862 18.617 23.5862 12C23.5862 5.38303 18.8528 0 13.0345 0ZM8.65614 1.08621C8.52455 1.1549 8.39462 1.22607 8.26593 1.30055C8.18772 1.34566 8.10869 1.38993 8.03172 1.4371C7.91834 1.50703 7.80745 1.58069 7.69655 1.65517H6.89959C7.50455 1.37214 8.13641 1.14869 8.79434 1.01007C8.74759 1.03366 8.7029 1.06179 8.65614 1.08621ZM4.49379 19.0345H3.00952C2.64455 18.5189 2.32055 17.9648 2.03917 17.3793H3.60662C3.67159 17.5262 3.73862 17.6714 3.80855 17.8146C3.83834 17.8759 3.86979 17.9359 3.90041 17.9963C3.98565 18.1635 4.07421 18.3277 4.16607 18.4895C4.19959 18.5491 4.23228 18.6091 4.26662 18.6679C4.33986 18.7924 4.41641 18.9137 4.49379 19.0345ZM1.84883 7.03448H3.43241C3.35959 7.21572 3.2909 7.39903 3.22593 7.58441C3.20814 7.63531 3.19034 7.68579 3.17297 7.73669C3.11338 7.91462 3.05793 8.09421 3.00538 8.27586H1.38869C1.52069 7.84924 1.67462 7.43545 1.84883 7.03448ZM0.827586 12C0.827586 11.7211 0.842483 11.4463 0.859862 11.1724H2.50965C2.50924 11.179 2.50924 11.1857 2.50883 11.1923C2.49352 11.4596 2.48276 11.7281 2.48276 12C2.48276 12.1386 2.48772 12.276 2.49186 12.4138H0.843724C0.839172 12.2756 0.827586 12.1394 0.827586 12ZM2.53903 13.2414C2.55476 13.4156 2.57503 13.5886 2.59738 13.7607C2.59903 13.7731 2.59986 13.7859 2.60152 13.7988C2.63214 14.0288 2.66938 14.2568 2.71117 14.4828H1.07917C0.998483 14.0764 0.934759 13.663 0.893793 13.2414H2.53903ZM2.79559 9.10345C2.78483 9.15269 2.77572 9.20234 2.76538 9.25159C2.75421 9.30579 2.74303 9.35959 2.73228 9.41379C2.68179 9.67366 2.63669 9.93559 2.60152 10.2012C2.59986 10.2137 2.59903 10.2265 2.59738 10.2393C2.59283 10.2745 2.58993 10.3097 2.58538 10.3448H0.943034C0.997655 9.92359 1.06676 9.50814 1.16152 9.10345H2.79559ZM2.89448 15.3103C2.90731 15.3612 2.91931 15.4126 2.93297 15.4634C2.93752 15.4812 2.94165 15.4994 2.94662 15.5172C3.0149 15.7697 3.09145 16.0179 3.17379 16.2629C3.19076 16.3138 3.20897 16.3643 3.22676 16.4152C3.24248 16.4607 3.25779 16.5062 3.27434 16.5513H1.67917C1.52234 16.1495 1.38745 15.7349 1.27241 15.3099L2.89448 15.3103ZM4.26662 5.33172C4.23228 5.39048 4.19959 5.45048 4.16607 5.51007C4.07421 5.67186 3.98565 5.83655 3.90041 6.00331C3.86979 6.06372 3.83834 6.12372 3.80855 6.18497C3.80483 6.19241 3.8011 6.19945 3.79738 6.2069H2.24648C2.55972 5.61641 2.92055 5.064 3.32069 4.55172H4.77021C4.71972 4.62414 4.66883 4.69572 4.62 4.76938C4.49793 4.95269 4.37959 5.14014 4.26662 5.33172ZM5.4749 2.48276H6.61821C6.516 2.57214 6.41379 2.66234 6.31407 2.75586C6.23007 2.83531 6.14855 2.91766 6.06662 2.99959C5.98552 3.0811 5.90524 3.16345 5.82662 3.24786C5.74966 3.33021 5.67228 3.41172 5.59738 3.49614C5.53159 3.57062 5.46869 3.64759 5.40455 3.72414H4.03821C4.48262 3.26193 4.96221 2.84524 5.4749 2.48276ZM3.65131 19.8621H5.07145C5.11821 19.9233 5.16455 19.985 5.21255 20.045C5.33752 20.2018 5.46579 20.3549 5.59779 20.5039C5.67269 20.5887 5.75007 20.6702 5.82703 20.7521C5.90607 20.8361 5.98593 20.9189 6.06703 21.0004C6.10055 21.0343 6.13283 21.0703 6.16676 21.1034H4.92207C4.46772 20.7314 4.04276 20.316 3.65131 19.8621ZM8.79434 22.9899C7.84552 22.7901 6.94883 22.4234 6.1171 21.931H7.11807C7.16979 21.9708 7.22276 22.0084 7.2749 22.0473C7.36303 22.1127 7.45034 22.1785 7.54014 22.241C7.7011 22.3531 7.86497 22.4607 8.03131 22.5629C8.10869 22.6105 8.18731 22.6543 8.26552 22.6994C8.39421 22.7739 8.52414 22.8455 8.65572 22.9138C8.7029 22.9382 8.74759 22.9663 8.79434 22.9899ZM13.0345 23.1724C12.7059 23.1724 12.3811 23.153 12.0604 23.1161L11.8961 23.093C11.8759 23.0901 11.8556 23.0872 11.8353 23.0843C11.6913 23.064 11.5486 23.04 11.4066 23.0127C11.3963 23.0106 11.3863 23.0086 11.3764 23.0065C11.2378 22.9792 11.1004 22.949 10.9643 22.915C10.9461 22.9105 10.9283 22.9055 10.9105 22.9006C10.7826 22.8679 10.6556 22.8331 10.5298 22.7946C10.4959 22.7843 10.4628 22.7723 10.4292 22.7615C10.3196 22.7268 10.2103 22.6912 10.1028 22.6519C10.0262 22.6241 9.9509 22.5931 9.87559 22.5633C9.81103 22.5381 9.74607 22.5141 9.68234 22.4872C7.45779 21.5454 5.6131 19.6949 4.4909 17.3297C4.48097 17.3081 4.47145 17.2866 4.46152 17.2651C4.4011 17.136 4.34234 17.0052 4.28648 16.8728C4.26455 16.8211 4.24428 16.7686 4.22317 16.7164C4.18097 16.613 4.13959 16.5091 4.10028 16.404C4.07545 16.3374 4.05186 16.2699 4.02786 16.2025C3.99517 16.1102 3.9629 16.0175 3.93186 15.9236C3.90703 15.8479 3.88345 15.7717 3.86028 15.6952C3.83338 15.6074 3.80731 15.5193 3.78207 15.4303C3.75931 15.3497 3.73779 15.2686 3.71669 15.1874C3.69393 15.1006 3.67241 15.0128 3.65172 14.9247C3.63186 14.8415 3.61283 14.7579 3.59503 14.6735C3.576 14.5854 3.55862 14.4964 3.54166 14.4074C3.52552 14.323 3.50938 14.2382 3.49448 14.1534C3.47876 14.0615 3.4651 13.9688 3.45145 13.8757C3.43903 13.7926 3.42662 13.7098 3.41586 13.6258C3.40303 13.5265 3.3931 13.4259 3.38276 13.3258C3.37448 13.2476 3.36538 13.1698 3.35876 13.0912C3.34883 12.9761 3.34221 12.8603 3.33559 12.744C3.33186 12.6786 3.32648 12.6141 3.32359 12.5487C3.3149 12.3679 3.31034 12.1846 3.31034 12C3.31034 11.8154 3.3149 11.6321 3.32234 11.4497C3.32524 11.3843 3.33062 11.3193 3.33434 11.2543C3.34097 11.1385 3.34759 11.0222 3.35752 10.9072C3.36414 10.8286 3.37324 10.7508 3.38152 10.6726C3.39186 10.5724 3.40221 10.4719 3.41462 10.3726C3.42538 10.289 3.43821 10.2058 3.45021 10.1226C3.46386 10.0299 3.47793 9.93724 3.49324 9.84497C3.50772 9.75972 3.52386 9.67531 3.54041 9.5909C3.55738 9.50193 3.57476 9.41297 3.59379 9.32483C3.612 9.24083 3.63103 9.15724 3.65048 9.07366C3.67117 8.98552 3.6931 8.89821 3.71545 8.8109C3.73655 8.72938 3.75807 8.64869 3.78083 8.568C3.80566 8.47903 3.83214 8.3909 3.85903 8.30317C3.88303 8.22786 3.90621 8.15131 3.93103 8.076C3.96165 7.98248 3.99393 7.88979 4.02703 7.7971C4.05103 7.72966 4.07421 7.66221 4.09945 7.59559C4.13876 7.49048 4.18055 7.38662 4.22234 7.28317C4.24345 7.23103 4.26372 7.17848 4.28566 7.12676C4.34152 6.99434 4.40028 6.864 4.46069 6.73448C4.47062 6.71297 4.48014 6.69103 4.49007 6.66993C5.61228 4.30428 7.45738 2.45379 9.68152 1.51241C9.74524 1.48552 9.81021 1.46193 9.87476 1.43628C9.95048 1.40648 10.0258 1.37545 10.1019 1.34772C10.2099 1.30883 10.3192 1.27283 10.4284 1.23807C10.4619 1.22731 10.4954 1.21531 10.529 1.20497C10.6548 1.16648 10.7818 1.13172 10.9097 1.09903C10.9279 1.09448 10.9457 1.0891 10.9634 1.08455C11.0996 1.05062 11.237 1.02041 11.3756 0.993104C11.3859 0.991035 11.3959 0.988966 11.4058 0.986897C11.5477 0.959586 11.6905 0.935586 11.8345 0.91531C11.8548 0.912414 11.875 0.909103 11.8953 0.906621L12.0596 0.883448C12.3811 0.847035 12.7059 0.827586 13.0345 0.827586C18.3964 0.827586 22.7586 5.83945 22.7586 12C22.7586 18.1606 18.3964 23.1724 13.0345 23.1724Z" fill="#7BC05B"/>
<path d="M13.0345 3.50727C13.2852 3.50727 13.5389 3.52217 13.7867 3.55072C13.8033 3.55279 13.8194 3.55362 13.8352 3.55362C14.0425 3.55362 14.2212 3.39845 14.2456 3.18783C14.2721 2.96107 14.1095 2.75541 13.8827 2.72893C13.6043 2.69624 13.3208 2.67969 13.027 2.67969C13.0254 2.67969 13.0237 2.67969 13.0221 2.67969L13.0167 3.09348V2.67969C12.7878 2.67969 12.6116 2.86465 12.6116 3.09348C12.612 3.32231 12.8056 3.50727 13.0345 3.50727Z" fill="#7BC05B"/>
<path d="M15.9915 4.21803C16.2199 4.33307 16.4454 4.463 16.6618 4.6041C16.7313 4.64962 16.8095 4.67155 16.8873 4.67155C17.0222 4.67155 17.1546 4.60534 17.2345 4.48369C17.3595 4.29251 17.3053 4.03596 17.1137 3.911C16.8716 3.75293 16.6196 3.60769 16.3639 3.479C16.1591 3.37596 15.9108 3.45831 15.8082 3.66231C15.7055 3.86631 15.7875 4.115 15.9915 4.21803Z" fill="#7BC05B"/>
<path d="M20.1248 9.63775C20.1715 9.82562 20.3404 9.95099 20.5257 9.95099C20.5593 9.95099 20.5928 9.94686 20.6267 9.93858C20.8485 9.88313 20.983 9.65844 20.9275 9.43665C20.8584 9.16148 20.7769 8.88548 20.6846 8.61651C20.6102 8.40051 20.3751 8.28506 20.1587 8.35955C19.9427 8.43361 19.8273 8.66906 19.9013 8.88548C19.9862 9.13168 20.0611 9.38493 20.1248 9.63775Z" fill="#7BC05B"/>
<path d="M18.423 17.8015C18.2587 18.0035 18.0837 18.1988 17.902 18.3825C17.7414 18.5451 17.7431 18.807 17.9061 18.9676C17.9864 19.047 18.0915 19.0872 18.1966 19.0872C18.3034 19.0872 18.4101 19.0462 18.4912 18.9643C18.6907 18.7619 18.8835 18.5468 19.0648 18.3246C19.2092 18.147 19.1823 17.8864 19.0048 17.7424C18.8272 17.5984 18.567 17.6244 18.423 17.8015Z" fill="#7BC05B"/>
<path d="M19.5434 6.32103C19.3833 6.08476 19.2103 5.85345 19.0295 5.63331C18.8838 5.45703 18.624 5.43138 18.4469 5.57662C18.2706 5.72186 18.2453 5.98255 18.3902 6.15924C18.5549 6.35951 18.7125 6.57014 18.8582 6.78531C18.938 6.90365 19.0688 6.96696 19.2012 6.96696C19.2811 6.96696 19.3618 6.94379 19.4329 6.89579C19.622 6.76751 19.6717 6.51014 19.5434 6.32103Z" fill="#7BC05B"/>
<path d="M16.0362 19.7609C15.8065 19.8788 15.569 19.9843 15.3302 20.0741C15.1163 20.1544 15.0083 20.3932 15.089 20.6071C15.1511 20.773 15.3087 20.8752 15.4763 20.8752C15.5247 20.8752 15.574 20.8666 15.6224 20.8483C15.8905 20.7474 16.1574 20.629 16.4148 20.497C16.618 20.3928 16.6982 20.1432 16.594 19.9401C16.4897 19.7369 16.2402 19.6558 16.0362 19.7609Z" fill="#7BC05B"/>
<path d="M13.0345 20.4926C12.7775 20.4926 12.5185 20.4773 12.266 20.4471C12.0327 20.4239 11.8328 20.5824 11.8059 20.8091C11.779 21.0359 11.9408 21.242 12.1676 21.2693C12.4531 21.3032 12.7452 21.3206 13.0349 21.3206H13.07C13.2989 21.3206 13.466 21.1352 13.466 20.9068C13.466 20.6784 13.2633 20.4926 13.0345 20.4926Z" fill="#7BC05B"/>
<path d="M20.4422 14.8064C20.2262 14.7323 19.9907 14.8498 19.9179 15.0662C19.8343 15.3137 19.7391 15.5599 19.6353 15.7987C19.5438 16.008 19.6402 16.2522 19.8496 16.3432C19.9034 16.3668 19.9597 16.3775 20.0143 16.3775C20.1744 16.3775 20.3263 16.2844 20.3942 16.1289C20.5071 15.8686 20.6106 15.6 20.7016 15.3302C20.7753 15.1142 20.659 14.8796 20.4422 14.8064Z" fill="#7BC05B"/>
<path d="M20.8278 11.5732C20.599 11.5732 20.414 11.7719 20.414 12.0003C20.414 12.2556 20.4045 12.5117 20.3851 12.7612C20.3673 12.9892 20.5378 13.1883 20.7658 13.2057C20.7765 13.2065 20.7877 13.2069 20.798 13.2069C21.0124 13.2069 21.1932 13.0422 21.2102 12.825C21.2313 12.5543 21.2416 12.2767 21.2416 12.0003V11.9738C21.2416 11.745 21.0567 11.5732 20.8278 11.5732Z" fill="#7BC05B"/>
<path d="M5.65534 12.0005C5.65534 11.7427 5.66569 11.4807 5.68597 11.2225C5.70376 10.9945 5.53369 10.7955 5.30569 10.7773C5.08183 10.7624 4.87907 10.9296 4.86086 11.1572C4.83893 11.4369 4.82776 11.7207 4.82776 12V12.0087C4.82776 12.2372 5.01272 12.418 5.24155 12.418C5.47038 12.418 5.65534 12.2289 5.65534 12.0005Z" fill="#7BC05B"/>
<path d="M5.93998 14.3453C5.88453 14.1235 5.65943 13.9882 5.43846 14.0437C5.21667 14.0987 5.08177 14.3234 5.13681 14.5452C5.20549 14.8208 5.28701 15.0968 5.37887 15.3657C5.43763 15.5379 5.59818 15.6459 5.77032 15.6459C5.8146 15.6459 5.8597 15.6384 5.90398 15.6235C6.11998 15.5495 6.23584 15.3144 6.16177 15.098C6.07777 14.8518 6.00329 14.5986 5.93998 14.3453Z" fill="#7BC05B"/>
<path d="M9.86014 4.2775C9.92303 4.2775 9.98758 4.26302 10.0476 4.2324C10.2785 4.11488 10.5164 4.00978 10.7548 3.92082C10.9687 3.84095 11.0771 3.60219 10.9972 3.38826C10.9174 3.17392 10.6799 3.06509 10.4647 3.14578C10.1974 3.24592 9.93048 3.36344 9.67186 3.49544C9.46827 3.59888 9.38717 3.8484 9.49103 4.05199C9.56427 4.19516 9.70952 4.2775 9.86014 4.2775Z" fill="#7BC05B"/>
<path d="M6.22773 7.6402C6.01711 7.54668 5.77421 7.64351 5.68276 7.85289C5.56938 8.11193 5.46511 8.38048 5.37324 8.6511C5.3 8.86751 5.41628 9.10255 5.63228 9.1762C5.67614 9.1911 5.72124 9.19813 5.76511 9.19813C5.93766 9.19813 6.09862 9.0893 6.15697 8.91717C6.24097 8.66889 6.33655 8.42268 6.44083 8.18558C6.53228 7.9762 6.43711 7.73206 6.22773 7.6402Z" fill="#7BC05B"/>
<path d="M10.0626 19.7756C9.83418 19.6597 9.60866 19.5289 9.39307 19.3874C9.2019 19.2621 8.94576 19.3163 8.81997 19.507C8.69501 19.6982 8.74838 19.9547 8.93956 20.0797C9.1808 20.2378 9.43238 20.3834 9.68852 20.5134C9.74852 20.544 9.81225 20.5581 9.87514 20.5581C10.0262 20.5581 10.1718 20.4753 10.2447 20.3317C10.3481 20.1281 10.267 19.879 10.0626 19.7756Z" fill="#7BC05B"/>
<path d="M7.20083 17.1998C7.07256 17.0103 6.81559 16.9607 6.62607 17.0885C6.43697 17.2168 6.38731 17.4738 6.51518 17.6633C6.67738 17.9029 6.84952 18.1346 7.02745 18.3518C7.10938 18.4516 7.22773 18.5033 7.34773 18.5033C7.44 18.5033 7.53269 18.4727 7.60966 18.4093C7.78676 18.2641 7.812 18.0038 7.66759 17.8267C7.50621 17.6293 7.34897 17.4183 7.20083 17.1998Z" fill="#7BC05B"/>
<path d="M7.59148 5.02277C7.39203 5.22388 7.19838 5.43905 7.01631 5.66167C6.87148 5.83877 6.89796 6.09946 7.07507 6.24387C7.15203 6.30677 7.24472 6.33739 7.33658 6.33739C7.45658 6.33739 7.57575 6.28567 7.65727 6.18553C7.82238 5.98319 7.99782 5.78829 8.17907 5.60581C8.34003 5.4436 8.3392 5.18167 8.17658 5.0207C8.01438 4.85974 7.75244 4.86015 7.59148 5.02277Z" fill="#7BC05B"/>
<path d="M15.8904 11.2072C16.538 10.7492 16.8658 10.0784 16.8658 9.20819C16.8658 8.46957 16.615 7.8435 16.1197 7.34861C15.6244 6.85371 14.9755 6.60254 14.1914 6.60254H10.0109C9.76051 6.60254 9.5983 6.76475 9.5983 7.01509C9.5983 7.26544 9.7601 7.42764 10.0109 7.42764L10.9692 7.4264L10.97 13.4305H9.7241C9.49651 13.4305 9.3103 13.6167 9.3103 13.8443C9.3103 14.0719 9.49651 14.2581 9.7241 14.2581H10.97V15.7863H10.0104C9.7601 15.7863 9.59789 15.9485 9.59789 16.1988C9.59789 16.4492 9.75968 16.6114 10.0104 16.6114H14.7397C15.6252 16.6114 16.3233 16.3552 16.814 15.8496C17.3031 15.3456 17.551 14.693 17.551 13.9097C17.551 12.502 16.9932 11.5954 15.8904 11.2072ZM11.7931 7.42806H14.1914C14.7699 7.42806 15.2131 7.58985 15.5462 7.92213C15.8789 8.25523 16.0406 8.66695 16.0406 9.18088C16.0406 9.69647 15.876 10.1181 15.5366 10.4698C15.1998 10.8195 14.7819 10.9892 14.2601 10.9892L11.7939 10.9904L11.7931 7.43012C11.7931 7.43012 11.7757 7.42806 11.7931 7.42806ZM16.2041 15.2649C15.8528 15.6162 15.374 15.7867 14.7397 15.7867L11.7939 15.7883L11.7935 14.2585H13.4482C13.6758 14.2585 13.862 14.0723 13.862 13.8447C13.862 13.6172 13.6758 13.431 13.4482 13.431H11.7935L11.7931 11.8167C11.7931 11.8167 11.7753 11.8143 11.7926 11.8143H14.7397C15.374 11.8143 15.8528 11.9847 16.2041 12.3361C16.5554 12.6878 16.7259 13.1665 16.7259 13.8005C16.7259 14.4344 16.5554 14.9136 16.2041 15.2649Z" fill="#7BC05B"/>
</g>
<defs>
<clipPath id="clip0_624_83">
<rect width="24" height="24" fill="white"/>
</clipPath>
</defs>
</svg>
