<svg width="35" height="32" viewBox="0 0 35 32" fill="none" xmlns="http://www.w3.org/2000/svg">
<path d="M16.2867 13.1763H1.98333V26.7705C1.96778 28.1616 2.54333 29.4999 3.57778 30.4825C4.61222 31.4651 6.02195 32.0128 7.48611 31.9997H16.2886L16.2867 13.1763ZM16.6172 6.06293H18.1572C19.6817 3.52177 21.0778 1.79378 22.3903 0.860145C24.0081 -0.293729 25.6647 -0.30314 26.9636 0.931674C28.1769 2.08366 28.4044 3.5293 27.6053 4.92223C27.3797 5.30999 27.0803 5.69022 26.705 6.06293H32.3594C33.6797 6.06293 35 7.11327 35 8.57208C35 9.8276 33.8936 11.0831 32.3594 11.0831H18.4878V7.73632H16.2867V11.0831H2.64056C1.32222 11.0831 0 10.0328 0 8.57208C0 7.31845 1.10639 6.06293 2.64056 6.06293H8.35722C7.99951 5.74026 7.68114 5.37901 7.40833 4.98623C6.46139 3.58577 6.57611 2.10625 7.81083 0.931674C9.10972 -0.30314 10.7664 -0.291846 12.3861 0.860145C13.6967 1.79378 15.0928 3.52365 16.6192 6.06293H16.6172ZM14.0603 6.06293C12.9325 4.32553 11.9253 3.1453 11.0658 2.53354C10.2706 1.96884 9.835 1.96508 9.36639 2.40931C8.88611 2.86672 8.85695 3.25824 9.25944 3.85306C9.71833 4.53259 10.6847 5.2987 12.0769 6.06293H14.0603ZM20.7142 6.06293H23.0864C24.4144 5.32505 25.2914 4.57965 25.6725 3.91706C26.0031 3.34483 25.9331 2.91001 25.4081 2.41119C24.9394 1.96508 24.5039 1.96696 23.7106 2.53354C22.8492 3.1453 21.84 4.32553 20.7161 6.06293H20.7142ZM18.4878 13.1744H32.7931V26.7705C32.7992 27.4613 32.6611 28.1462 32.3871 28.784C32.1132 29.4219 31.7089 29.9996 31.1986 30.4825C30.1551 31.4698 28.7493 32.0156 27.2903 31.9997H18.4878V13.1744Z" fill="#7BC05B"/>
</svg>
