<svg width="27" height="27" viewBox="0 0 27 27" fill="none" xmlns="http://www.w3.org/2000/svg">
    <path d="M27.0002 13.8241C27.0002 12.9124 26.9102 11.9712 26.7601 11.0889H13.7666V16.2946H21.2086C20.9085 17.971 19.9183 19.4416 18.4479 20.3828L22.8891 23.765C25.4998 21.3827 27.0002 17.9122 27.0002 13.8241Z" fill="black"/>
    <path d="M13.7665 26.9998C17.4875 26.9998 20.6083 25.7939 22.8889 23.7351L18.4477 20.3823C17.2174 21.2058 15.627 21.6764 13.7665 21.6764C10.1655 21.6764 7.13467 19.2941 6.02437 16.1177L1.46313 19.5588C3.80377 24.1175 8.54505 26.9998 13.7665 26.9998Z" fill="black"/>
    <path d="M6.02413 16.0883C5.45397 14.4118 5.45397 12.5883 6.02413 10.9119L1.4629 7.44141C-0.487632 11.2648 -0.487632 15.7647 1.4629 19.5588L6.02413 16.0883Z" fill="black"/>
    <path d="M13.7665 5.35332C15.717 5.32391 17.6375 6.05919 19.0479 7.38268L22.979 3.50043C20.4883 1.20637 17.1874 -0.0288977 13.7665 0.000513308C8.54505 0.000513308 3.80377 2.8828 1.46313 7.44151L6.02437 10.912C7.13467 7.70621 10.1655 5.35332 13.7665 5.35332Z" fill="black"/>
</svg>
