<svg width="18" height="24" viewBox="0 0 18 24" fill="none" xmlns="http://www.w3.org/2000/svg">
<path d="M13.9312 11.6672C14.6062 10.7016 15 9.525 15 8.25C15 4.93594 12.3141 2.25 9 2.25C5.68594 2.25 3 4.93594 3 8.25C3 9.525 3.39375 10.7016 4.06875 11.6672C4.24219 11.9156 4.44844 12.1969 4.66875 12.4969C5.27344 13.3266 5.99531 14.3203 6.53437 15.3C7.02187 16.1906 7.27031 17.1187 7.39219 17.9953H5.10937C5.00625 17.4328 4.83281 16.8844 4.55625 16.3781C4.09219 15.5344 3.51562 14.7422 2.93906 13.95C2.69531 13.6172 2.45156 13.2844 2.21719 12.9469C1.29375 11.6203 0.75 9.99844 0.75 8.25C0.75 3.69375 4.44375 0 9 0C13.5562 0 17.25 3.69375 17.25 8.25C17.25 9.99844 16.7062 11.6203 15.7781 12.9516C15.5437 13.2891 15.3 13.6219 15.0562 13.9547C14.4797 14.7422 13.9031 15.5344 13.4391 16.3828C13.1625 16.8891 12.9891 17.4375 12.8859 18H10.6125C10.7344 17.1234 10.9828 16.1906 11.4703 15.3047C12.0094 14.325 12.7312 13.3313 13.3359 12.5016C13.5562 12.2016 13.7578 11.9203 13.9312 11.6719V11.6672ZM9 24C6.92812 24 5.25 22.3219 5.25 20.25V19.5H12.75V20.25C12.75 22.3219 11.0719 24 9 24Z" fill="#676767"/>
</svg>
