<svg width="32" height="32" viewBox="0 0 32 32" fill="none" xmlns="http://www.w3.org/2000/svg">
<g clip-path="url(#clip0_758_140)">
<path d="M20.9312 15.6672C21.6062 14.7016 22 13.525 22 12.25C22 8.93594 19.3141 6.25 16 6.25C12.6859 6.25 10 8.93594 10 12.25C10 13.525 10.3937 14.7016 11.0687 15.6672C11.2422 15.9156 11.4484 16.1969 11.6687 16.4969C12.2734 17.3266 12.9953 18.3203 13.5344 19.3C14.0219 20.1906 14.2703 21.1187 14.3922 21.9953H12.1094C12.0062 21.4328 11.8328 20.8844 11.5562 20.3781C11.0922 19.5344 10.5156 18.7422 9.93906 17.95C9.69531 17.6172 9.45156 17.2844 9.21719 16.9469C8.29375 15.6203 7.75 13.9984 7.75 12.25C7.75 7.69375 11.4437 4 16 4C20.5562 4 24.25 7.69375 24.25 12.25C24.25 13.9984 23.7062 15.6203 22.7781 16.9516C22.5437 17.2891 22.3 17.6219 22.0562 17.9547C21.4797 18.7422 20.9031 19.5344 20.4391 20.3828C20.1625 20.8891 19.9891 21.4375 19.8859 22H17.6125C17.7344 21.1234 17.9828 20.1906 18.4703 19.3047C19.0094 18.325 19.7312 17.3313 20.3359 16.5016C20.5562 16.2016 20.7578 15.9203 20.9312 15.6719V15.6672ZM16 28C13.9281 28 12.25 26.3219 12.25 24.25V23.5H19.75V24.25C19.75 26.3219 18.0719 28 16 28Z" fill="#676767"/>
</g>
<defs>
<clipPath id="clip0_758_140">
<rect width="18" height="24" fill="white" transform="translate(7 4)"/>
</clipPath>
</defs>
</svg>
