<svg width="24" height="29" viewBox="0 0 24 29" fill="none" xmlns="http://www.w3.org/2000/svg">
<path d="M20.843 8.32317L20.3687 8.79746L20.7873 9.32155C22.326 11.248 23.25 13.6845 23.25 16.3335C23.25 22.5476 18.2508 27.5835 12 27.5835C9.01631 27.5835 6.15483 26.3982 4.04505 24.2884C1.93526 22.1787 0.75 19.3172 0.75 16.3335C0.75 13.3498 1.93526 10.4883 4.04505 8.37854C6.15483 6.26876 9.01631 5.0835 12 5.0835C14.648 5.0835 17.0823 6.00677 19.0203 7.58213L19.549 8.01192L20.0274 7.52677L21.4173 6.11729C21.6964 6.38009 21.9652 6.65131 22.231 6.93514L20.843 8.32317ZM13.3333 18.4168H14.0833V17.6668V8.3335V7.5835H13.3333H10.6667H9.91667V8.3335V17.6668V18.4168H10.6667H13.3333ZM8.75 1.0835H15.25V2.25016H8.75V1.0835Z" stroke="#676767" stroke-width="1.5"/>
</svg>
