<svg width="24" height="29" viewBox="0 0 24 29" fill="none" xmlns="http://www.w3.org/2000/svg">
<path d="M21.3733 8.8535L23.2667 6.96016C22.6667 6.28016 22.0667 5.66683 21.3867 5.08016L19.4933 7.00016C17.4267 5.32016 14.8267 4.3335 12 4.3335C8.8174 4.3335 5.76516 5.59778 3.51472 7.84821C1.26428 10.0987 0 13.1509 0 16.3335C0 19.5161 1.26428 22.5683 3.51472 24.8188C5.76516 27.0692 8.8174 28.3335 12 28.3335C18.6667 28.3335 24 22.9602 24 16.3335C24 13.5068 23.0133 10.9068 21.3733 8.8535ZM13.3333 17.6668H10.6667V8.3335H13.3333V17.6668ZM16 0.333496H8V3.00016H16V0.333496Z" fill="#676767"/>
</svg>
