<svg width="26" height="23" viewBox="0 0 26 23" fill="none" xmlns="http://www.w3.org/2000/svg">
<path d="M13 22.12C13 22.12 1 15.4 1 7.24001C1 5.79747 1.49979 4.39949 2.41435 3.28392C3.3289 2.16835 4.60171 1.40409 6.01624 1.12119C7.43076 0.838282 8.89961 1.0542 10.1729 1.73221C11.4461 2.41022 12.4452 3.50844 13 4.84001C13.5548 3.50844 14.5539 2.41022 15.8271 1.73221C17.1004 1.0542 18.5692 0.838282 19.9838 1.12119C21.3983 1.40409 22.6711 2.16835 23.5857 3.28392C24.5002 4.39949 25 5.79747 25 7.24001C25 15.4 13 22.12 13 22.12Z" stroke="#676767" stroke-width="1.5" stroke-linecap="round" stroke-linejoin="round"/>
</svg>
